# xmcd
#
# Track frame offsets:
#	150
#	14051
#	34313
#	52273
#	69328
#	83932
#	98844
#	113027
#	127179
#	144456
#	157638
#	175244
#	191951
#	210989
#	228509
#	243245
#	260569
#	277532
#	294556
#	310808
#
# Disc length: 4379 seconds
#
# Revision: 2
# Processed by: cddbd v1.5.2PL0 Copyright (c) Steve Scherf et al.
# Submitted via: EasyCDDAExtractor 8.0.0.2
#
DISCID=1f111914
DTITLE=Various Artist - Bravo Hits 45  CD 2
DYEAR=1900
DGENRE=Sampler-Serie
TTITLE0=Max - Can't Wait Until Tonight
TTITLE1=Nightwish - Nemo
TTITLE2=3 Doors Down  - Here Without You
TTITLE3=Oomph! Feat. L'ame Immortelle  - Brennende Liebe
TTITLE4=Christina Stürmer  - Vorbei
TTITLE5=Juli - Perfekte Welle
TTITLE6=The Streets  - Fit But You Know It
TTITLE7=Exilia -  Stop Playing God
TTITLE8=Jelena Jakopin - True
TTITLE9=Pet - No Yes No
TTITLE10=Toktok Und Nena  - Bang Bang
TTITLE11=Jam and Spoon Featuring Rea Garvey  - Set Me Free (Empty Rooms)
TTITLE12=Blank and Jones Feat. Elles  - Mind Of The Wonderful
TTITLE13=Mustafa Sandal - Araba
TTITLE14=Tiesto Feat. Bt  - Love Comes Again
TTITLE15=Dj Shog  - Live 4 Music
TTITLE16=Atb  - Marrakech
TTITLE17=Groove Coverage - 7 Years And 50 Days
TTITLE18=O-Zone  - Dragostea Din Tei
TTITLE19=Söhne Mannheims  - Vielleicht
EXTD=
EXTT0=
EXTT1=
EXTT2=
EXTT3=
EXTT4=
EXTT5=
EXTT6=
EXTT7=
EXTT8=
EXTT9=
EXTT10=
EXTT11=
EXTT12=
EXTT13=
EXTT14=
EXTT15=
EXTT16=
EXTT17=
EXTT18=
EXTT19=
PLAYORDER=
